<svg width="500" height="300" fill="none" xmlns="http://www.w3.org/2000/svg"><path fill-rule="evenodd" clip-rule="evenodd" d="M178.955 219.858h21.618v7.625h-21.618v-7.625z" fill="#EDF0F2"/><path d="M281.866 211.162c.22-22.076 11.448-45.317 35.316-45.811 14.767-.302 19.944 16.287 20.308 28.037 5.029-3.711 9.831-5.659 14.101-5.659 5.249 0 9.698 2.945 12.769 9.18 4.514-4.863 11.578-10.584 22.457-10.584 12.823 0 19.044 8.471 19.044 16.474 0 .442-.015.886-.04 1.328a390.09 390.09 0 00-18.608-.436c-46.292 0-76.565 7.039-105.347 7.471" fill="#FAFBFC"/><path d="M402.156 227.362H160.034l121.036-2.715 81.868-18.249 39.218 20.964z" fill="#F6F8FA"/><path d="M248.274 203.441l3.1.598c-2.542-9.998-4.856-15.304-11.657-22.792l-.994.054c6.61 7.272 7.046 12.279 9.551 22.14zm-10.372-3.319l2.426.296c-.475-9.75-1.361-14.462-5.181-21.579l-1.068-.159c3.711 6.917 3.358 11.827 3.823 21.442" fill="#B6BFC4"/><path d="M218.221 199.848c9.695 1.347 50.789 7.513 50.789 7.513s-.508-4.417-2.786-4.921c-2.272-.504-49.122-4.849-49.122-4.849-.342.435-.49.94 1.119 2.257z" fill="#D1D5DA"/><path fill-rule="evenodd" clip-rule="evenodd" d="M327.421 204.309h9.796v23.174h-9.796v-23.174zm-48.257 0h8.214v15.07h-8.214v-15.07z" fill="#E1E4E8"/><path fill-rule="evenodd" clip-rule="evenodd" d="M279.164 219.376h8.214v8.107h-8.214v-8.107z" fill="#D1D5DA"/><path fill-rule="evenodd" clip-rule="evenodd" d="M205.979 223.659h12.726v3.553h-12.726v-3.553z" fill="#E1E4E8"/><path d="M270.124 227.256h-5.36v-3.913h5.36v3.913z" fill="#EDF0F2"/><path d="M264.762 221.233h5.36v2.11h-5.36v-2.11z" fill="#E1E4E8"/><path fill-rule="evenodd" clip-rule="evenodd" d="M259.396 225.996h2.682v1.259h-2.682v-1.259zm0-4.763h2.682v2.11h-2.682v-2.11z" fill="#E1E4E8"/><path fill-rule="evenodd" clip-rule="evenodd" d="M259.396 223.343h2.682v2.654h-2.682v-2.654z" fill="#D1D5DA"/><path fill-rule="evenodd" clip-rule="evenodd" d="M254.036 221.233h2.682v1.174h-2.682v-1.174z" fill="#E1E4E8"/><path fill-rule="evenodd" clip-rule="evenodd" d="M254.036 225.996h2.682v1.259h-2.682v-1.259zm0-3.589h2.682v3.589h-2.682v-3.589z" fill="#D1D5DA"/><path d="M210.836 140.002l-2.448.857s-1.249 4.769-1.497 5.594l1.242.298 3.902-1.411.044-5.039-1.243-.299z" fill="#6A737D"/><path d="M210.72 140.925l-.706.169.151-10.541 1.102-.054-.547 10.426z" fill="#D1D5DA"/><path d="M211.033 128.344c-.536 0-1 .374-1.069.889-.072.565.353 1.087.954 1.163.602.079 1.145-.317 1.22-.879.073-.565-.356-1.087-.954-1.163-.05-.007-.1-.01-.151-.01zm.036 2.869c-.086 0-.169-.008-.255-.018-1.041-.136-1.778-1.062-1.649-2.067.133-1.004 1.084-1.706 2.12-1.573 1.041.134 1.779 1.063 1.649 2.063-.118.922-.929 1.595-1.865 1.595zm3.068 2.327h-.028c-.63.014-1.228.522-1.304 1.108a.81.81 0 00.188.645c.169.191.421.291.727.284.63-.014 1.224-.522 1.303-1.108a.8.8 0 00-.191-.645c-.165-.184-.41-.284-.695-.284zm-.45 2.843c-.507 0-.979-.201-1.292-.55a1.598 1.598 0 01-.389-1.289c.13-.99 1.045-1.782 2.081-1.811a1.751 1.751 0 011.346.551c.31.346.451.806.386 1.289-.126.99-1.044 1.785-2.081 1.81h-.051z" fill="#D1D5DA"/><path d="M210.729 139.773l-.162-.788c1.88-.389 2.516-1.08 2.847-3.074l1.117-.224c-.386 2.333-1.584 3.629-3.802 4.086" fill="#D1D5DA"/><path d="M206.89 146.454c.248-.824 1.501-5.594 1.501-5.594l2.444-.857-.047 5.04-3.898 1.411z" fill="#959DA5"/><path d="M126.349 241.54l-1.487-.08 104.255-13.928h1.257L126.349 241.54z" fill="#D1D5DA"/><path d="M230.636 227.547l159.458 10.603" stroke="#D1D5DA" stroke-width=".242" stroke-miterlimit="10"/><path d="M230.636 227.35l-118.17 6.834m118.17-6.834l117.4 2.345-117.4-2.345z" stroke="#E1E4E8" stroke-width=".268" stroke-miterlimit="10"/><path d="M333.454 247.949l-11.602-.018-91.769-20.445.591.011 102.78 20.452z" fill="#EDF0F2"/><path d="M182.138 233.703l107.471-.917" stroke="#EDF0F2" stroke-width=".536" stroke-miterlimit="10"/><path d="M98.113 231.907l107.471-.922" stroke="#EDF0F2" stroke-width=".268" stroke-miterlimit="10"/><path d="M277.549 237.606l107.47-.922" stroke="#EDF0F2" stroke-width="1.071" stroke-miterlimit="10"/><path d="M405.465 44.649c0 3.441-3.125 6.228-6.98 6.228-3.86 0-6.985-2.787-6.985-6.228 0-3.442 3.125-6.229 6.985-6.229 3.855 0 6.98 2.787 6.98 6.229z" fill="#F6F8FA"/><path d="M403.756 42.846c3.082 7.11-7.229 11.58-10.31 4.471-3.089-7.11 7.225-11.581 10.31-4.471z" fill="#fff"/><path d="M165.04 161.887c-3.287-8.453-11.045-6.725-17.432-4.471.613-15.254-5.742-23.556-9.492-24.031-8.64-1.094-10.297 8.672-12.255 19.487-4.738-5.457-10.202 10.242-9.414 5.303 2.754-17.233-11.758-11.412-20.376 1.58 20.207 14.371 45.266-5.097 68.969 2.131" fill="#FAFBFC"/><path fill-rule="evenodd" clip-rule="evenodd" d="M127.996 167.575h3.852v59.908h-3.852v-59.908z" fill="#E1E4E8"/><path d="M141.757 227.484h-10.429v-73.465l10.419 5.224.01 68.241z" fill="#EDF0F2"/><path fill-rule="evenodd" clip-rule="evenodd" d="M183.534 210.616h10.429v16.589h-10.429v-16.589z" fill="#E1E4E8"/><path d="M230.54 219.061l-4.677-.008-1.897 2.446h6.574v-2.438z" fill="#E1E4E8"/><path d="M223.965 221.498l-4.651 5.986h11.225v-5.986h-6.574z" fill="#EDF0F2"/><path fill-rule="evenodd" clip-rule="evenodd" d="M160.45 183.516h9.054v43.967h-9.054v-43.967z" fill="#E1E4E8"/><path fill-rule="evenodd" clip-rule="evenodd" d="M146.227 177.148h18.906v50.335h-18.906v-50.335z" fill="#EDF0F2"/><path d="M349.637 227.484H330.73v-30.027l18.907-11.92v41.947z" fill="#EDF0F2"/><path fill-rule="evenodd" clip-rule="evenodd" d="M231.712 220.552h3.614v6.768h-3.614v-6.768z" fill="#EDF0F2"/><path fill-rule="evenodd" clip-rule="evenodd" d="M236.482 221.179h1.958v6.304h-1.958v-6.304zm-122.097 1.739h41.061v4.565h-41.061v-4.565z" fill="#E1E4E8"/><path fill-rule="evenodd" clip-rule="evenodd" d="M267.572 219.804h10.282v7.409h-10.282v-7.409z" fill="#EDF0F2"/><path d="M138.836 192.068c-.205-5.44-5.342-11.193-15.224-11.193-6.437 0-8.748 3.979-8.946 6.847-2.175-.903-4.262-1.382-6.124-1.382-2.285 0-4.234.72-5.595 2.243-1.95-1.188-5.003-2.584-9.745-2.584-5.586 0-8.326 2.073-8.355 4.027 0 .105.004.213.014.321a306.73 306.73 0 018.107-.105c20.168 0 33.333 1.722 45.868 1.826" fill="#FAFBFC"/><path d="M179.433 141.412l.414 7.854c-.177.123-.349.249-.519.375l-.418-7.815c.173-.138.346-.278.523-.414zm.658 12.542a3.316 3.316 0 00-.507.583l-.162-3.099c.166-.177.335-.349.511-.522l.158 3.038zm-.706-13.449c-.179.147-.352.298-.522.449l-.158-2.977c.162-.18.335-.363.519-.54l.161 3.068zm-8.369 28.785c-.015-.119-.025-.238-.037-.356l4.67-5.418c-.044.262-.094.528-.144.792l-4.489 4.982zm5.86-7.2c-.075.302-.147.605-.198.911l-.172.194-.054-.615.424-.49zm14.394-15.289l-3.665 4.072c-.072-.307-.184-.613-.281-.912l3.578-4.154c.14.327.263.659.368.994zm-8.529 9.467a7.406 7.406 0 00-.159-.806l3.723-4.32c.007.389.01.774.01 1.16l-3.574 3.966zm-2.03 9.509c-.163.176-.332.349-.501.522l-.115-2.172c.172-.018.349-.078.522-.179l.094 1.829zm.802 15.21a5.682 5.682 0 01-.508.294l-.751-14.187c.183-.094.356-.191.51-.295l.749 14.188zm.641-21.007c-.353 1.404-1.044 2.552-1.832 3.28-.457.425-.932.694-1.372.81a1.922 1.922 0 01-.889.022 1.835 1.835 0 01-.781-.411c-.335-.295-.627-.742-.836-1.321-.349-.994-.414-2.315-.057-3.719.353-1.401 1.044-2.549 1.832-3.28.461-.424.933-.687 1.372-.806.309-.079.608-.086.889-.018.281.061.543.198.781.407.335.295.63.738.832 1.317.353.994.417 2.323.061 3.719zm-1.498-6.145c-1.997-.465-4.237 1.609-5.003 4.637-.764 3.024.233 5.853 2.232 6.318 1.997.464 4.237-1.613 5.004-4.637.763-3.028-.234-5.854-2.233-6.318" fill="#E1E4E8"/><path d="M180.254 159.457c0 1.17-.497 2.121-1.105 2.121-.612 0-1.105-.951-1.105-2.121 0-1.166.493-2.116 1.105-2.116.608 0 1.105.95 1.105 2.116z" fill="#6A737D"/><path d="M178.745 160.547l.706-2.102 23.591-3.194-.404 6.066-23.893-.77z" fill="#6A737D"/><path d="M177.898 147.458c1.415-1.419 2.88-2.318 4.248-2.715.968-.28 1.9-.316 2.783-.118.785.176 1.523.537 2.211 1.087.608-1.242 1.637-2.635 4.039-4.745a6.786 6.786 0 00-2.65-1.332c-3.744-.921-7.982 1.476-11.423 5.897-.263 1.228-.493 2.466-.728 3.694.487-.648.994-1.243 1.52-1.768" fill="#D1D5DA"/><path d="M180.642 175.928c-.968.281-1.897.32-2.779.118-.886-.194-1.71-.63-2.462-1.296-1.07-.947-2.009-2.383-2.679-4.273-1.152-3.24-1.419-7.567-.385-12.175.814-3.615 2.279-6.725 4.042-9.075.235-1.228.465-2.467.728-3.694-2.21 2.847-4.097 6.527-5.303 10.706-3.085 10.688-.597 20.581 5.555 22.097 1.307.32 2.674.234 4.043-.195a7.715 7.715 0 01-.709-2.231.22.22 0 01-.051.018" fill="#959DA5"/><path d="M180.693 175.91c.112.713.32 1.436.709 2.232a11.027 11.027 0 002.254-1.015 9.593 9.593 0 01-1.433-1.861 7.871 7.871 0 01-1.53.644" fill="#D1D5DA"/><path d="M194.082 161.728c2.592-8.986 1.249-17.403-2.901-20.761-2.401 2.11-3.431 3.503-4.043 4.745.086.068.169.136.252.208 1.069.951 2.005 2.387 2.679 4.274 1.151 3.24 1.418 7.571.381 12.178-1.034 4.608-3.132 8.406-5.558 10.84-.882.889-1.783 1.57-2.668 2.056a9.707 9.707 0 001.433 1.857c4.302-2.52 8.356-8.222 10.425-15.397" fill="#959DA5"/><path d="M235.323 145.785c10.814 6.077-4.129 22.993 25.65 32.616 1.821.586-20.423 9.54-31.126 7.556-14.58-2.7-39.024-56.718 5.476-40.172" fill="#EDF0F2"/><path d="M226.242 181.858c-11.577-16.102-18.522-47.447 9.302-34.296 3.291 2.346 2.855 8.085 2.938 11.152.273 10.354 8.69 16.805 19.695 22.169 8.079 3.931-18.367 4.986-26.802 4.068-2.019-.216-3.866-1.328-5.133-3.093" fill="#D1D5DA"/><path d="M256.982 94.174l-2.173 12.941" stroke="#959DA5" stroke-width="1.071" stroke-miterlimit="10"/><path d="M254.852 103.903c.696-1.49 1.023-3.129 1.171-4.832l-1.394.224a1.85 1.85 0 00-1.386 1.134l-4.039 10.012c2.257-1.944 4.367-3.978 5.648-6.538" fill="#E1E4E8"/><path d="M256.908 98.929l-.886.143c-.146 1.703-.475 3.341-1.169 4.832-1.282 2.559-3.392 4.594-5.652 6.538l-.54 1.342-3.575 8.856 7.992-.072c3.776-6.462 4.795-13.838 5.152-21.32a1.684 1.684 0 00-1.322-.319" fill="#B6BFC4"/><path d="M258.23 99.249c-.36 7.48-1.375 14.856-5.151 21.319l5.104-.048.256-7.369.432-12.491c.021-.595-.234-1.099-.641-1.411z" fill="#D1D5DA"/><path d="M251.554 103.432c1.761-.435 6.077-.219 7.624.767z" fill="#79B8FF"/><path d="M258.789 104.84c-1.27-.81-5.357-1.094-7.059-.673l-.35-1.469c1.898-.471 6.42-.27 8.191.857l-.782 1.285z" fill="#6A737D"/><path d="M258.955 104.567c-1.444-.917-5.667-1.115-7.301-.709l-.197-.849c1.803-.45 6.267-.252 7.948.817l-.45.741z" fill="#2188FF"/><path d="M259.107 104.321c-1.527-.968-5.804-1.173-7.517-.748l-.069-.281c1.757-.436 6.16-.22 7.737.781l-.151.248z" fill="#DCFFE4"/><path d="M258.737 108.343c-.508-.561-2.045-1.025-4.022-1.209-1.947-.18-3.711-.054-4.38.158l-.425-1.328c1.824-.58 8.118-.497 9.864 1.443l-1.037.936z" fill="#6A737D"/><path d="M258.955 108.144c-1.274-1.414-6.973-1.681-8.712-1.13l-.242-.77c1.815-.572 7.942-.429 9.551 1.364l-.597.536z" fill="#2188FF"/><path d="M259.155 107.966c-1.429-1.588-7.366-1.725-8.992-1.207l-.083-.259c1.72-.547 7.754-.403 9.276 1.285l-.201.181z" fill="#DCFFE4"/><path d="M378.032 117.482c-.359 2.031-1.468 4.036-3.546 5.997-5.73 5.415-17.851 9.602-35.171 11.661-23.566 2.801-55.408 1.527-89.896-4.579-34.488-6.102-64.832-15.836-86.004-26.56-15.559-7.88-25.51-15.97-29.034-23.026-1.275-2.553-1.63-4.817-1.274-6.847.36-2.035 1.476-4.04 3.55-5.998 5.731-5.418 17.852-9.602 35.171-11.66 23.566-2.805 55.408-1.53 89.896 4.575 56.84 10.062 101.455 29.79 113.443 46.937 2.556 3.654 3.345 6.807 2.865 9.5zM262.617 56.437c-69.318-12.873-128.668-6.322-132.56 14.634-3.894 20.959 49.147 48.384 118.466 61.261 69.318 12.874 128.671 6.322 132.566-14.634 3.892-20.955-49.151-48.383-118.472-61.26z" fill="#F6F8FA"/><path d="M231.172 187.132c-10.875-5.669-17.151-18.375-17.405-31.252-3.147 1.037-6.351 1.926-9.66 2.524-6.411.886-13.738-2.052-19.724-.115-4.442 9.587 9.09 20.474 46.789 28.843" fill="#B6BFC4"/><path d="M204.109 158.402c3.308-.594 6.508-1.483 9.655-2.52-.097-4.78.637-9.587 2.271-14.065-17.471 4.122-28.652 10.001-31.651 16.474 5.987-1.937 13.309.997 19.725.111" fill="#D1D5DA"/><path d="M243.018 116.276l-1.498 5.058c-.073.25-.118.507-.133.767-.083 1.275.515 2.599 1.592 3.819.787-4.186 1.759-8.337 3.049-12.347-1.556.547-2.646 1.479-3.01 2.703z" fill="#E1E4E8"/><path d="M262.136 120.704c-.036-1.119-.612-2.268-1.584-3.323-.385 4.144-.284 8.381-.839 12.475 1.447-.706 2.391-1.783 2.563-3.14l.022-.223c.007-.115.007-.231.004-.345l-.166-5.444zm-6.859-6.64a17.06 17.06 0 00-2.409-.688c-2.624-.555-5.039-.436-6.84.194-1.292 4.014-2.26 8.165-3.049 12.349.713.809 1.638 1.569 2.722 2.242l.151.086c1.515-3.387 4.047-6.584 6.581-9.579 1.141-1.394 2.041-2.967 2.844-4.604z" fill="#D1D5DA"/><path d="M255.277 114.064c-.803 1.637-1.703 3.21-2.844 4.604-2.534 2.994-5.065 6.192-6.581 9.579 1.595.962 3.514 1.728 5.601 2.168 3.28.688 6.257.421 8.259-.558.558-4.094.454-8.331.839-12.478-1.227-1.328-3.082-2.516-5.274-3.315" fill="#B6BFC4"/><path d="M268.486 127.336c-.349 3.006-8.215 4.569-17.576 3.493-9.363-1.08-16.672-4.392-16.326-7.399.35-3.006 8.219-4.568 17.579-3.488 9.361 1.08 16.668 4.389 16.323 7.394z" fill="#D1D5DA"/><path clip-rule="evenodd" d="M258.691 91.633c0-1.501-.549-2.721-1.226-2.721-.676 0-1.226 1.22-1.226 2.721 0 1.503.55 2.722 1.226 2.722.677 0 1.226-1.22 1.226-2.722z" stroke="#959DA5" stroke-width="1.071" stroke-miterlimit="10"/><path clip-rule="evenodd" d="M282.952 156.051c0-20.197-15.561-36.594-34.729-36.594s-34.729 16.397-34.729 36.594c0 20.196 15.561 36.593 34.729 36.593s34.729-16.397 34.729-36.593z" stroke="#D1D5DA" stroke-width="1.037" stroke-miterlimit="10"/><path d="M154.027 62.22c-.81.288-1.61.602-2.401.947L217.657 83.9a18.1 18.1 0 012.203-1.052L154.027 62.22zm70.62 22.127c-1.087.23-2.174.483-3.258.724l10.256 3.222c.336-.479.879-.892 1.62-1.246l-8.618-2.7zm47.899 6.793c1.233.459 2.448.963 3.643 1.512l23.997-4.813a676.031 676.031 0 00-5.367-1.512l-22.273 4.813zm51.441-11.117l-21.406 4.627c1.347.578 2.653 1.26 3.967 1.91l21.661-4.344a71.251 71.251 0 00-4.222-2.193zM236.92 100.53c-1.602-.188-3.2-.389-4.784-.66l-1.21.264c.991.335 1.976.67 2.96 1.004l3.034-.608zm-45.833 8.211c.587.218 1.176.428 1.768.629l35.204-7.063c-1.389-.23-2.779-.449-4.172-.655l-32.8 7.089zm154.725 13.569c-.836.368-1.689.703-2.539 1.034l14.645 4.597a36.5 36.5 0 002.927-.921l-15.033-4.71zm-65.103-20.397c-.943.31-2.077.555-3.381.724l14.934 4.687a183.84 183.84 0 003.052-.835l-14.605-4.576zm60.666 19.007l-38.135-11.948c-.763.367-1.534.72-2.304 1.077L338.995 122c.795-.349 1.588-.709 2.379-1.08" fill="#E1E4E8"/><path fill-rule="evenodd" clip-rule="evenodd" d="M313.551 209.13h10.642v13.544h-10.642V209.13z" fill="#D1D5DA"/><path fill-rule="evenodd" clip-rule="evenodd" d="M313.551 222.669h10.642v4.814h-10.642v-4.814z" fill="#E1E4E8"/><path fill-rule="evenodd" clip-rule="evenodd" d="M76.001 227.213h307.778v.27H76.001v-.27z" fill="#D1D5DA"/><path d="M247.676 129.666c9.361.281 19.217 6.804 19.217 14.094 0 5.703-3.444 7.848-3.61 10.879-.062 1.069.312 3.103.312 4.738 0 1.069-.744 2.016-2.008 2.786m-2.087.961c-2.171.756-5.019 1.177-8.065 1.137m-9.956-1.879l-.4-.162m-2.123-1.04c-4.551-2.57-7.869-6.905-7.758-13.586.115-6.884 2.235-11.474 5.389-14.289m8.367 36.189c.032 1.393.093 3.377.186 4.763l-.186-4.763z" stroke="#0366D6" stroke-width=".683" stroke-miterlimit="10"/><path d="M248.211 132.271c-.008-2.254-.108-4.551-1.188-6.48l.248.172c-2.476-.395-5.015.598-6.887 2.257-1.89 1.657-3.262 3.936-3.805 6.387l-.67-.144c.583-2.61 2.024-4.997 4.026-6.761 1.979-1.757 4.726-2.851 7.437-2.415l.166.028.082.145c1.177 2.109 1.264 4.553 1.274 6.807l-.683.004zm16.47 5.809c.914-2.195 2.049-4.496 1.447-6.731l.263.241c-2.786-.659-5.734-.389-8.179 1.123l-.338-.594c1.281-.742 2.718-1.293 4.212-1.469 1.497-.187 3.002-.032 4.446.27l.205.043.054.202c.67 2.606-.598 5.008-1.476 7.178l-.634-.263z" fill="#0366D6"/><path d="M233.948 156.845a4.205 4.205 0 01-.296-1.544c0-4.136 5.937-4.619 5.937-9.792 0-.638-.047-1.289-.047-1.937 0-4.101 3.73-6.509 7.341-6.509 3.963 0 5.569 4.784 11.548 4.784 1.57 0 3.045-.766 4.662-.766 2.535 0 3.243 2.599 3.243 5.133 0 .497-.028 1.005-.078 1.52m-5.275-13.514c1.764-1.314 4.723-3.305 4.777-1.854.047 1.332-.885 3.467-1.552 4.813m-23.315-4.456s3.848-7.053 5.559-5.987c1.709 1.069 1.209 5.558 1.209 5.558m-14.311 18.26c-3.302.442-6.239.864-9.436 1.94m9.179.114c-2.866.522-5.644 1.512-8.053 3.176m43.758 3.118c-1.299-1.192-3.488-2.095-5.403-2.326m4.373 5.792c-1.267-1.08-2.675-2.146-4.173-2.934m-34.156 22.998c.45-3.021 1.242-5.797 2.491-8.356m11.45-4.43c-.879 3.956-1.407 7.959-1.407 11.998 0 1.548.075 3.096.241 4.654m-4.657-14.487c-1.635 4.716-2.668 9.753-2.668 14.609v.281m19.058-31.444c.069-.499-.57-1.001-1.427-1.12-.856-.119-1.608.188-1.678.687-.069.498.571 1 1.427 1.119.856.12 1.609-.188 1.678-.686z" stroke="#0366D6" stroke-width=".683" stroke-miterlimit="10"/><path d="M264.196 188.306c.507-2.023 2.945-10.562 2.945-10.562-2.876-.512-23.753-4.604-27.879-3.809-.276.05-.575.147-.889.27.465 5.649.447 11.34.695 16.981 3.031 1.17 8.183 1.199 12.143.918 5.9-.425 8.938-1.35 12.985-3.798" fill="#959DA5"/><path d="M226.261 184.109c3.74 3.232 8.133 5.562 12.838 7.077-.259-5.641-.242-11.332-.727-16.981-3.971 1.49-10.3 7.992-12.111 9.904z" fill="#B6BFC4"/><path d="M247.254 159.643c1.113-.288 2.272-.191 3.233.296.122-.263.238-.526.36-.796a7.206 7.206 0 00-3.071-.735c-.14.306-.32.728-.522 1.235" fill="#F66A0A"/><path d="M248.049 157.836c-.004.004-.108.21-.274.573a7.173 7.173 0 013.071.734 86.2 86.2 0 00.274-.597 3.453 3.453 0 00-1.45-.724 3.483 3.483 0 00-1.621.014" fill="#FDAEB7"/><path d="M247.255 159.643c-1.509 3.823-4.054 12.575 2.879 14.969.551-.309.339-1.537.339-1.537-5.043-2.888-2.336-8.05.015-13.136-.962-.487-2.121-.584-3.233-.296z" fill="#959DA5"/><path d="M260.772 159.306c-.014-.148-.032-.295-.047-.443-.821-.241-2.095-.18-2.685.49.014.179.043.382.071.59.919-.341 1.768-.684 2.661-.637" fill="#FFAB70"/><path d="M258.11 159.942c.05.374.12.792.202 1.246.89-.241 1.721-.58 2.592-.767-.047-.381-.094-.749-.133-1.116-.893-.043-1.742.295-2.661.637" fill="#FFDF5D"/><path d="M258.311 161.187c.749 4.204 2.391 11.228-1.617 12.614l.12 1.184c6.912-1.868 4.881-8.838 4.092-14.565-.871.187-1.706.529-2.595.767z" fill="#959DA5"/><path d="M252.666 176.743c-.043 3.262-2.509 13.108-2.519 13.266-.008.151-7.305 1.796-7.305 1.796 4.684 1.092 11.647-.018 13.28-.485l-3.175-1.21c.475-3.096 1.282-9.771 1.332-13.036" fill="#6A737D"/><path d="M253.877 172.429c-2.973 0-2.98 4.684 0 4.684 2.974 0 2.978-4.684 0-4.684zm2.945 2.298c0 4.428-6.786 4.435-6.786 0 0-4.436 6.786-4.443 6.786 0z" fill="#6A737D"/><path d="M240.909 162.674c.677-1.635.763-3.301-3.622-.543-7.009 4.406-16.625 9.921-9.723 13.435 12.596-3.971 15.296-7.571 20.033-5.437 3.295 1.487 5.051-7.113 2.898-7.966-8.964-4.439-15.778 6.886-22.853 9.446m37.648 6.01c.345-1.498 2.016-3.967 2.141-5.864 0-12.28-9.219-11.067-9.18-5.829.012 1.127-2.167 5.274.397 5.605 3.117.403 5.072 1.711 4.442 5.508" stroke="#0366D6" stroke-width=".683" stroke-miterlimit="10"/><path d="M206.014 161.584c-.01 2.528.073 3.809.429 6.394a576.752 576.752 0 00-5.544-.656c-.313-2.314-.385-3.459-.375-5.724 2.175-.013 3.273-.018 5.49-.014zm1.785-12.275c-.695 2.38-.961 3.59-1.322 6.044-2.224.26-3.329.397-5.529.666.324-2.203.558-3.29 1.184-5.421a691.96 691.96 0 015.667-1.289zm-5.702 23.844c.651 2.348 1.065 3.532 2.08 5.915a727.01 727.01 0 00-5.781-1.957c-.893-2.1-1.26-3.147-1.84-5.232 2.186.493 3.291.749 5.541 1.274z" fill="#6A737D"/><path d="M200.897 167.321c.31 2.312.548 3.481 1.199 5.832-2.25-.521-3.355-.781-5.54-1.271-.579-2.083-.792-3.117-1.073-5.162 2.139.227 3.222.349 5.414.601zm.051-11.302c-.324 2.199-.41 3.319-.425 5.58-2.174.014-3.25.025-5.385.054.003-2.002.076-2.996.352-4.943a579.63 579.63 0 015.458-.691zm3.08-10.774c-.918 2.056-1.274 3.222-1.897 5.354a600.59 600.59 0 00-5.609 1.313c.54-1.89.777-2.566 1.58-4.385 2.614-1.047 3.579-1.522 5.926-2.282" fill="#6A737D"/><path d="M165.483 201.75v-6.505h-13.111v6.505h13.111zm-20.19-6.502v6.501h7.077v-6.501h-7.077z" fill="#D1D5DA"/><path fill-rule="evenodd" clip-rule="evenodd" d="M161.257 188.747h4.227v3.251h-4.227v-3.251zm-15.962 0h7.078v3.25h-7.078v-3.25z" fill="#D1D5DA"/><path fill-rule="evenodd" clip-rule="evenodd" d="M152.372 188.747h8.884v3.25h-8.884v-3.25zm-7.077-6.505h3.935v3.25h-3.935v-3.25z" fill="#B6BFC4"/><path fill-rule="evenodd" clip-rule="evenodd" d="M161.257 182.242h4.227v3.25h-4.227v-3.25zm-12.031 0h12.031v3.25h-12.031v-3.25z" fill="#D1D5DA"/><path d="M340.408 220.871v-6.501h6.153v6.501h-6.153z" fill="#D1D5DA"/><path d="M349.883 214.372v6.498h-3.323v-6.498h3.323z" fill="#D1D5DA"/><path fill-rule="evenodd" clip-rule="evenodd" d="M340.407 207.866h1.984v3.251h-1.984v-3.251zm6.152.004h3.323v3.251h-3.323v-3.251z" fill="#D1D5DA"/><path fill-rule="evenodd" clip-rule="evenodd" d="M342.39 207.87h4.169v3.251h-4.169v-3.251zm5.646-6.502h1.846v3.247h-1.846v-3.247z" fill="#B6BFC4"/><path fill-rule="evenodd" clip-rule="evenodd" d="M340.407 201.368h1.984v3.247h-1.984v-3.247z" fill="#D1D5DA"/><path fill-rule="evenodd" clip-rule="evenodd" d="M342.39 201.368h5.645v3.247h-5.645v-3.247z" fill="#D1D5DA"/><path d="M288.197 235.356h14.163v-11.585h-14.163v11.585z" fill="#D1D5DA"/><path d="M302.359 217.522h-14.162v6.249h14.162v-6.249z" fill="#EDF0F2"/><path fill-rule="evenodd" clip-rule="evenodd" d="M309.44 233.876h11.066v5.836H309.44v-5.836z" fill="#D1D5DA"/><path fill-rule="evenodd" clip-rule="evenodd" d="M309.44 211.837h11.066v9.775H309.44v-9.775z" fill="#EDF0F2"/><path fill-rule="evenodd" clip-rule="evenodd" d="M309.44 221.611h11.066v12.265H309.44v-12.265zm14.158-4.089h7.078v3.474h-7.078v-3.474z" fill="#E1E4E8"/><path fill-rule="evenodd" clip-rule="evenodd" d="M323.598 231.623h7.078v3.733h-7.078v-3.733z" fill="#D1D5DA"/><path fill-rule="evenodd" clip-rule="evenodd" d="M323.598 220.996h7.078v10.627h-7.078v-10.627z" fill="#EDF0F2"/><path fill-rule="evenodd" clip-rule="evenodd" d="M171.74 205.771h7.888v5.347h-7.888v-5.347z" fill="#E1E4E8"/><path fill-rule="evenodd" clip-rule="evenodd" d="M171.736 222.367h7.888v8.954h-7.888v-8.954z" fill="#D1D5DA"/><path fill-rule="evenodd" clip-rule="evenodd" d="M171.74 211.121h7.888v11.247h-7.888v-11.247z" fill="#EDF0F2"/><path d="M159.905 212.051h-17.323v18.223h17.323v-18.223z" fill="#D1D5DA"/><path d="M142.582 240.113h17.323v-9.836h-17.324l.001 9.836z" fill="#E1E4E8"/><path fill-rule="evenodd" clip-rule="evenodd" d="M120.346 225.603h12.392v6.876h-12.392v-6.876zm0-28.407h12.392v7.387h-12.392v-7.387z" fill="#D1D5DA"/><path fill-rule="evenodd" clip-rule="evenodd" d="M120.346 204.583h12.392v21.02h-12.392v-21.02z" fill="#E1E4E8"/><path d="M208.73 202.471l-3.967-.346c.864-9.489 2.851-13.852 9.399-20.354l1.21.173c-6.364 6.314-5.789 11.167-6.642 20.527zm-14.264-1.677l-3.867-.36c3.621-9.864 6.872-14.397 15.315-21.15l1.155.18c-8.197 6.559-9.033 11.606-12.603 21.33z" fill="#959DA5"/><path d="M181.511 199.771c8.308 1.278 43.059 7.124 43.059 7.124s4.036-4.187 2.28-4.662c-1.761-.479-44.14-4.601-44.14-4.601-.788.414-1.455.889-1.199 2.139" fill="#B6BFC4"/><path fill-rule="evenodd" clip-rule="evenodd" d="M205.979 215.451h12.726v8.208h-12.726v-8.208z" fill="#EDF0F2"/><path fill-rule="evenodd" clip-rule="evenodd" d="M343.877 222.159h27.67v5.324h-27.67v-5.324z" fill="#D1D5DA"/><path d="M248.221 119.456c-19.181 0-34.729 16.384-34.729 36.594 0 20.207 15.548 36.594 34.729 36.594 19.181 0 34.729-16.387 34.729-36.594 0-20.21-15.548-36.594-34.729-36.594zm0 1.343c18.411 0 33.387 15.815 33.387 35.251s-14.976 35.251-33.387 35.251c-18.41 0-33.386-15.815-33.386-35.251s14.976-35.251 33.386-35.251" fill="#FAFBFC"/></svg>
